<svg version="1.1" xmlns="http://www.w3.org/2000/svg" xmlns:xlink="http://www.w3.org/1999/xlink" width="527.3818359375" height="531"><defs/><g><text fill="#eeeeee" stroke="none" font-family="Arial" font-size="24px" font-style="normal" font-weight="normal" text-decoration="none" x="0" y="0">UNREGISTERED</text><text fill="#eeeeee" stroke="none" font-family="Arial" font-size="24px" font-style="normal" font-weight="normal" text-decoration="none" x="0" y="30">UNREGISTERED</text><text fill="#eeeeee" stroke="none" font-family="Arial" font-size="24px" font-style="normal" font-weight="normal" text-decoration="none" x="0" y="60">UNREGISTERED</text><text fill="#eeeeee" stroke="none" font-family="Arial" font-size="24px" font-style="normal" font-weight="normal" text-decoration="none" x="0" y="90">UNREGISTERED</text><text fill="#eeeeee" stroke="none" font-family="Arial" font-size="24px" font-style="normal" font-weight="normal" text-decoration="none" x="0" y="120">UNREGISTERED</text><text fill="#eeeeee" stroke="none" font-family="Arial" font-size="24px" font-style="normal" font-weight="normal" text-decoration="none" x="0" y="150">UNREGISTERED</text><text fill="#eeeeee" stroke="none" font-family="Arial" font-size="24px" font-style="normal" font-weight="normal" text-decoration="none" x="0" y="180">UNREGISTERED</text><text fill="#eeeeee" stroke="none" font-family="Arial" font-size="24px" font-style="normal" font-weight="normal" text-decoration="none" x="0" y="210">UNREGISTERED</text><text fill="#eeeeee" stroke="none" font-family="Arial" font-size="24px" font-style="normal" font-weight="normal" text-decoration="none" x="0" y="240">UNREGISTERED</text><text fill="#eeeeee" stroke="none" font-family="Arial" font-size="24px" font-style="normal" font-weight="normal" text-decoration="none" x="0" y="270">UNREGISTERED</text><text fill="#eeeeee" stroke="none" font-family="Arial" font-size="24px" font-style="normal" font-weight="normal" text-decoration="none" x="0" y="300">UNREGISTERED</text><text fill="#eeeeee" stroke="none" font-family="Arial" font-size="24px" font-style="normal" font-weight="normal" text-decoration="none" x="0" y="330">UNREGISTERED</text><text fill="#eeeeee" stroke="none" font-family="Arial" font-size="24px" font-style="normal" font-weight="normal" text-decoration="none" x="0" y="360">UNREGISTERED</text><text fill="#eeeeee" stroke="none" font-family="Arial" font-size="24px" font-style="normal" font-weight="normal" text-decoration="none" x="0" y="390">UNREGISTERED</text><text fill="#eeeeee" stroke="none" font-family="Arial" font-size="24px" font-style="normal" font-weight="normal" text-decoration="none" x="0" y="420">UNREGISTERED</text><text fill="#eeeeee" stroke="none" font-family="Arial" font-size="24px" font-style="normal" font-weight="normal" text-decoration="none" x="0" y="450">UNREGISTERED</text><text fill="#eeeeee" stroke="none" font-family="Arial" font-size="24px" font-style="normal" font-weight="normal" text-decoration="none" x="0" y="480">UNREGISTERED</text><text fill="#eeeeee" stroke="none" font-family="Arial" font-size="24px" font-style="normal" font-weight="normal" text-decoration="none" x="0" y="510">UNREGISTERED</text><text fill="#eeeeee" stroke="none" font-family="Arial" font-size="24px" font-style="normal" font-weight="normal" text-decoration="none" x="200" y="0">UNREGISTERED</text><text fill="#eeeeee" stroke="none" font-family="Arial" font-size="24px" font-style="normal" font-weight="normal" text-decoration="none" x="200" y="30">UNREGISTERED</text><text fill="#eeeeee" stroke="none" font-family="Arial" font-size="24px" font-style="normal" font-weight="normal" text-decoration="none" x="200" y="60">UNREGISTERED</text><text fill="#eeeeee" stroke="none" font-family="Arial" font-size="24px" font-style="normal" font-weight="normal" text-decoration="none" x="200" y="90">UNREGISTERED</text><text fill="#eeeeee" stroke="none" font-family="Arial" font-size="24px" font-style="normal" font-weight="normal" text-decoration="none" x="200" y="120">UNREGISTERED</text><text fill="#eeeeee" stroke="none" font-family="Arial" font-size="24px" font-style="normal" font-weight="normal" text-decoration="none" x="200" y="150">UNREGISTERED</text><text fill="#eeeeee" stroke="none" font-family="Arial" font-size="24px" font-style="normal" font-weight="normal" text-decoration="none" x="200" y="180">UNREGISTERED</text><text fill="#eeeeee" stroke="none" font-family="Arial" font-size="24px" font-style="normal" font-weight="normal" text-decoration="none" x="200" y="210">UNREGISTERED</text><text fill="#eeeeee" stroke="none" font-family="Arial" font-size="24px" font-style="normal" font-weight="normal" text-decoration="none" x="200" y="240">UNREGISTERED</text><text fill="#eeeeee" stroke="none" font-family="Arial" font-size="24px" font-style="normal" font-weight="normal" text-decoration="none" x="200" y="270">UNREGISTERED</text><text fill="#eeeeee" stroke="none" font-family="Arial" font-size="24px" font-style="normal" font-weight="normal" text-decoration="none" x="200" y="300">UNREGISTERED</text><text fill="#eeeeee" stroke="none" font-family="Arial" font-size="24px" font-style="normal" font-weight="normal" text-decoration="none" x="200" y="330">UNREGISTERED</text><text fill="#eeeeee" stroke="none" font-family="Arial" font-size="24px" font-style="normal" font-weight="normal" text-decoration="none" x="200" y="360">UNREGISTERED</text><text fill="#eeeeee" stroke="none" font-family="Arial" font-size="24px" font-style="normal" font-weight="normal" text-decoration="none" x="200" y="390">UNREGISTERED</text><text fill="#eeeeee" stroke="none" font-family="Arial" font-size="24px" font-style="normal" font-weight="normal" text-decoration="none" x="200" y="420">UNREGISTERED</text><text fill="#eeeeee" stroke="none" font-family="Arial" font-size="24px" font-style="normal" font-weight="normal" text-decoration="none" x="200" y="450">UNREGISTERED</text><text fill="#eeeeee" stroke="none" font-family="Arial" font-size="24px" font-style="normal" font-weight="normal" text-decoration="none" x="200" y="480">UNREGISTERED</text><text fill="#eeeeee" stroke="none" font-family="Arial" font-size="24px" font-style="normal" font-weight="normal" text-decoration="none" x="200" y="510">UNREGISTERED</text><text fill="#eeeeee" stroke="none" font-family="Arial" font-size="24px" font-style="normal" font-weight="normal" text-decoration="none" x="400" y="0">UNREGISTERED</text><text fill="#eeeeee" stroke="none" font-family="Arial" font-size="24px" font-style="normal" font-weight="normal" text-decoration="none" x="400" y="30">UNREGISTERED</text><text fill="#eeeeee" stroke="none" font-family="Arial" font-size="24px" font-style="normal" font-weight="normal" text-decoration="none" x="400" y="60">UNREGISTERED</text><text fill="#eeeeee" stroke="none" font-family="Arial" font-size="24px" font-style="normal" font-weight="normal" text-decoration="none" x="400" y="90">UNREGISTERED</text><text fill="#eeeeee" stroke="none" font-family="Arial" font-size="24px" font-style="normal" font-weight="normal" text-decoration="none" x="400" y="120">UNREGISTERED</text><text fill="#eeeeee" stroke="none" font-family="Arial" font-size="24px" font-style="normal" font-weight="normal" text-decoration="none" x="400" y="150">UNREGISTERED</text><text fill="#eeeeee" stroke="none" font-family="Arial" font-size="24px" font-style="normal" font-weight="normal" text-decoration="none" x="400" y="180">UNREGISTERED</text><text fill="#eeeeee" stroke="none" font-family="Arial" font-size="24px" font-style="normal" font-weight="normal" text-decoration="none" x="400" y="210">UNREGISTERED</text><text fill="#eeeeee" stroke="none" font-family="Arial" font-size="24px" font-style="normal" font-weight="normal" text-decoration="none" x="400" y="240">UNREGISTERED</text><text fill="#eeeeee" stroke="none" font-family="Arial" font-size="24px" font-style="normal" font-weight="normal" text-decoration="none" x="400" y="270">UNREGISTERED</text><text fill="#eeeeee" stroke="none" font-family="Arial" font-size="24px" font-style="normal" font-weight="normal" text-decoration="none" x="400" y="300">UNREGISTERED</text><text fill="#eeeeee" stroke="none" font-family="Arial" font-size="24px" font-style="normal" font-weight="normal" text-decoration="none" x="400" y="330">UNREGISTERED</text><text fill="#eeeeee" stroke="none" font-family="Arial" font-size="24px" font-style="normal" font-weight="normal" text-decoration="none" x="400" y="360">UNREGISTERED</text><text fill="#eeeeee" stroke="none" font-family="Arial" font-size="24px" font-style="normal" font-weight="normal" text-decoration="none" x="400" y="390">UNREGISTERED</text><text fill="#eeeeee" stroke="none" font-family="Arial" font-size="24px" font-style="normal" font-weight="normal" text-decoration="none" x="400" y="420">UNREGISTERED</text><text fill="#eeeeee" stroke="none" font-family="Arial" font-size="24px" font-style="normal" font-weight="normal" text-decoration="none" x="400" y="450">UNREGISTERED</text><text fill="#eeeeee" stroke="none" font-family="Arial" font-size="24px" font-style="normal" font-weight="normal" text-decoration="none" x="400" y="480">UNREGISTERED</text><text fill="#eeeeee" stroke="none" font-family="Arial" font-size="24px" font-style="normal" font-weight="normal" text-decoration="none" x="400" y="510">UNREGISTERED</text><g transform="translate(-62,-158) scale(1,1)"><path fill="#ffffff" stroke="none" d="M 92.02116672585227 609.6800000000001 C 92.02116672585227 604.8861679360001 95.90700905079773 601 100.700439453125 601 C 105.49386985545227 601 109.37971218039773 604.8861679360001 109.37971218039773 609.6800000000001 C 109.37971218039773 614.473832064 105.49386985545227 618.36 100.700439453125 618.36 C 95.90700905079773 618.36 92.02116672585227 614.473832064 92.02116672585227 609.6800000000001 Z"/></g><g transform="translate(-62,-158) scale(1,1)"><path fill="none" stroke="#000000" d="M 92.02116672585227 609.6800000000001 C 92.02116672585227 604.8861679360001 95.90700905079773 601 100.700439453125 601 C 105.49386985545227 601 109.37971218039773 604.8861679360001 109.37971218039773 609.6800000000001 C 109.37971218039773 614.473832064 105.49386985545227 618.36 100.700439453125 618.36 C 95.90700905079773 618.36 92.02116672585227 614.473832064 92.02116672585227 609.6800000000001 Z" stroke-miterlimit="10"/></g><g transform="translate(-62,-158) scale(1,1)"><path fill="none" stroke="#000000" d="M 100.700439453125 618.36 L 100.700439453125 635.64" stroke-miterlimit="10"/></g><g transform="translate(-62,-158) scale(1,1)"><path fill="none" stroke="#000000" d="M 91.51062127130682 624.84 L 109.89025763494318 624.84" stroke-miterlimit="10"/></g><g transform="translate(-62,-158) scale(1,1)"><path fill="none" stroke="#000000" d="M 100.700439453125 635.64 L 87.93680308948863 653" stroke-miterlimit="10"/></g><g transform="translate(-62,-158) scale(1,1)"><path fill="none" stroke="#000000" d="M 100.700439453125 635.64 L 113.46407581676137 653" stroke-miterlimit="10"/></g><g transform="translate(-62,-158) scale(1,1)"><g><path fill="none" stroke="none"/><text fill="#000000" stroke="none" font-family="Arial" font-size="13px" font-style="normal" font-weight="bold" text-decoration="none" x="78.302734375" y="673.5">Usuario</text></g></g><g transform="translate(-62,-158) scale(1,1)"><path fill="#C0C0C0" stroke="none" d="M 207 192 C 207 182.6111584 265.4268336 175 337.5 175 C 409.5731664 175 468 182.6111584 468 192 C 468 201.3888416 409.5731664 209 337.5 209 C 265.4268336 209 207 201.3888416 207 192 Z" opacity="0.2"/></g><g transform="translate(-62,-158) scale(1,1)"><path fill="#ffffff" stroke="none" d="M 200 185 C 200 175.6111584 258.4268336 168 330.5 168 C 402.5731664 168 461 175.6111584 461 185 C 461 194.3888416 402.5731664 202 330.5 202 C 258.4268336 202 200 194.3888416 200 185 Z"/></g><g transform="translate(-62,-158) scale(1,1)"><path fill="none" stroke="#000000" d="M 200 185 C 200 175.6111584 258.4268336 168 330.5 168 C 402.5731664 168 461 175.6111584 461 185 C 461 194.3888416 402.5731664 202 330.5 202 C 258.4268336 202 200 194.3888416 200 185 Z" stroke-miterlimit="10"/></g><g transform="translate(-62,-158) scale(1,1)"><g><path fill="none" stroke="none"/><text fill="#000000" stroke="none" font-family="Arial" font-size="13px" font-style="normal" font-weight="bold" text-decoration="none" x="249.20556640625" y="192">Verifica estados de los faros</text></g></g><g transform="translate(-62,-158) scale(1,1)"><path fill="#ffffff" stroke="none" d="M 529.0116452414773 265.68 C 529.0116452414773 260.886167936 532.8974875664227 257 537.69091796875 257 C 542.4843483710773 257 546.3701906960227 260.886167936 546.3701906960227 265.68 C 546.3701906960227 270.473832064 542.4843483710773 274.36 537.69091796875 274.36 C 532.8974875664227 274.36 529.0116452414773 270.473832064 529.0116452414773 265.68 Z"/></g><g transform="translate(-62,-158) scale(1,1)"><path fill="none" stroke="#000000" d="M 529.0116452414773 265.68 C 529.0116452414773 260.886167936 532.8974875664227 257 537.69091796875 257 C 542.4843483710773 257 546.3701906960227 260.886167936 546.3701906960227 265.68 C 546.3701906960227 270.473832064 542.4843483710773 274.36 537.69091796875 274.36 C 532.8974875664227 274.36 529.0116452414773 270.473832064 529.0116452414773 265.68 Z" stroke-miterlimit="10"/></g><g transform="translate(-62,-158) scale(1,1)"><path fill="none" stroke="#000000" d="M 537.69091796875 274.36 L 537.69091796875 291.64" stroke-miterlimit="10"/></g><g transform="translate(-62,-158) scale(1,1)"><path fill="none" stroke="#000000" d="M 528.5010997869318 280.84 L 546.8807361505682 280.84" stroke-miterlimit="10"/></g><g transform="translate(-62,-158) scale(1,1)"><path fill="none" stroke="#000000" d="M 537.69091796875 291.64 L 524.9272816051136 309" stroke-miterlimit="10"/></g><g transform="translate(-62,-158) scale(1,1)"><path fill="none" stroke="#000000" d="M 537.69091796875 291.64 L 550.4545543323864 309" stroke-miterlimit="10"/></g><g transform="translate(-62,-158) scale(1,1)"><g><path fill="none" stroke="none"/><text fill="#000000" stroke="none" font-family="Arial" font-size="13px" font-style="normal" font-weight="bold" text-decoration="none" x="503.727783203125" y="329.5">Controlador</text></g></g><g transform="translate(-62,-158) scale(1,1)"><path fill="none" stroke="#000000" d="M 495 273 L 364 203" stroke-miterlimit="10"/></g><g transform="translate(-62,-158) scale(1,1)"><path fill="none" stroke="#000000" d="M 374.947166085769 204.07682621187865 L 364 203 L 370.9793842574438 211.5022464906015" stroke-miterlimit="10"/></g><g transform="translate(-62,-158) scale(1,1)"><path fill="#C0C0C0" stroke="none" d="M 231 296 C 231 286.6111584 272.1897984 279 323 279 C 373.8102016 279 415 286.6111584 415 296 C 415 305.3888416 373.8102016 313 323 313 C 272.1897984 313 231 305.3888416 231 296 Z" opacity="0.2"/></g><g transform="translate(-62,-158) scale(1,1)"><path fill="#ffffff" stroke="none" d="M 224 289 C 224 279.6111584 265.1897984 272 316 272 C 366.8102016 272 408 279.6111584 408 289 C 408 298.3888416 366.8102016 306 316 306 C 265.1897984 306 224 298.3888416 224 289 Z"/></g><g transform="translate(-62,-158) scale(1,1)"><path fill="none" stroke="#000000" d="M 224 289 C 224 279.6111584 265.1897984 272 316 272 C 366.8102016 272 408 279.6111584 408 289 C 408 298.3888416 366.8102016 306 316 306 C 265.1897984 306 224 298.3888416 224 289 Z" stroke-miterlimit="10"/></g><g transform="translate(-62,-158) scale(1,1)"><g><path fill="none" stroke="none"/><text fill="#000000" stroke="none" font-family="Arial" font-size="13px" font-style="normal" font-weight="bold" text-decoration="none" x="259.99462890625" y="296">Genera notificacion</text></g></g><g transform="translate(-62,-158) scale(1,1)"><path fill="none" stroke="#000000" d="M 495 294 L 409 292" stroke-miterlimit="10"/></g><g transform="translate(-62,-158) scale(1,1)"><path fill="none" stroke="#000000" d="M 419.2577971173493 288.02789749637543 L 409 292 L 419.0620585175945 296.44465728583253" stroke-miterlimit="10"/></g><g transform="translate(-62,-158) scale(1,1)"><path fill="#C0C0C0" stroke="none" d="M 247 392 C 247 382.6111584 287.0705104 375 336.5 375 C 385.9294896 375 426 382.6111584 426 392 C 426 401.3888416 385.9294896 409 336.5 409 C 287.0705104 409 247 401.3888416 247 392 Z" opacity="0.2"/></g><g transform="translate(-62,-158) scale(1,1)"><path fill="#ffffff" stroke="none" d="M 240 385 C 240 375.6111584 280.0705104 368 329.5 368 C 378.9294896 368 419 375.6111584 419 385 C 419 394.3888416 378.9294896 402 329.5 402 C 280.0705104 402 240 394.3888416 240 385 Z"/></g><g transform="translate(-62,-158) scale(1,1)"><path fill="none" stroke="#000000" d="M 240 385 C 240 375.6111584 280.0705104 368 329.5 368 C 378.9294896 368 419 375.6111584 419 385 C 419 394.3888416 378.9294896 402 329.5 402 C 280.0705104 402 240 394.3888416 240 385 Z" stroke-miterlimit="10"/></g><g transform="translate(-62,-158) scale(1,1)"><g><path fill="none" stroke="none"/><text fill="#000000" stroke="none" font-family="Arial" font-size="13px" font-style="normal" font-weight="bold" text-decoration="none" x="275.300537109375" y="392">Manda notificacion</text></g></g><g transform="translate(-62,-158) scale(1,1)"><path fill="none" stroke="#000000" d="M 495 313 L 371 367" stroke-miterlimit="10"/></g><g transform="translate(-62,-158) scale(1,1)"><path fill="none" stroke="#000000" d="M 378.63677341352184 359.08294929721137 L 371 367 L 381.998214506026 366.80181402814685" stroke-miterlimit="10"/></g><g transform="translate(-62,-158) scale(1,1)"><path fill="#C0C0C0" stroke="none" d="M 287 544 C 287 534.6111584 309.6096176 527 337.5 527 C 365.3903824 527 388 534.6111584 388 544 C 388 553.3888416 365.3903824 561 337.5 561 C 309.6096176 561 287 553.3888416 287 544 Z" opacity="0.2"/></g><g transform="translate(-62,-158) scale(1,1)"><path fill="#ffffff" stroke="none" d="M 280 537 C 280 527.6111584 302.6096176 520 330.5 520 C 358.3903824 520 381 527.6111584 381 537 C 381 546.3888416 358.3903824 554 330.5 554 C 302.6096176 554 280 546.3888416 280 537 Z"/></g><g transform="translate(-62,-158) scale(1,1)"><path fill="none" stroke="#000000" d="M 280 537 C 280 527.6111584 302.6096176 520 330.5 520 C 358.3903824 520 381 527.6111584 381 537 C 381 546.3888416 358.3903824 554 330.5 554 C 302.6096176 554 280 546.3888416 280 537 Z" stroke-miterlimit="10"/></g><g transform="translate(-62,-158) scale(1,1)"><g><path fill="none" stroke="none"/><text fill="#000000" stroke="none" font-family="Arial" font-size="13px" font-style="normal" font-weight="bold" text-decoration="none" x="309.54638671875" y="544">Control</text></g></g><g transform="translate(-62,-158) scale(1,1)"><path fill="none" stroke="#000000" d="M 330 519 L 329 403" stroke-miterlimit="10" stroke-dasharray="3"/></g><g transform="translate(-62,-158) scale(1,1)"><path fill="none" stroke="#000000" d="M 333.2969673576599 413.1260096547063 L 329 403 L 324.87824466393533 413.19858485034183" stroke-miterlimit="10"/></g><g transform="translate(-62,-158) scale(1,1)"><g><path fill="none" stroke="none"/><text fill="#000000" stroke="none" font-family="Arial" font-size="13px" font-style="normal" font-weight="normal" text-decoration="none" x="271.5" y="466.5">«include»</text></g></g><g transform="translate(-62,-158) scale(1,1)"><path fill="#C0C0C0" stroke="none" d="M 231 664 C 231 654.6111584 275.5476624 647 330.5 647 C 385.4523376 647 430 654.6111584 430 664 C 430 673.3888416 385.4523376 681 330.5 681 C 275.5476624 681 231 673.3888416 231 664 Z" opacity="0.2"/></g><g transform="translate(-62,-158) scale(1,1)"><path fill="#ffffff" stroke="none" d="M 224 657 C 224 647.6111584 268.5476624 640 323.5 640 C 378.4523376 640 423 647.6111584 423 657 C 423 666.3888416 378.4523376 674 323.5 674 C 268.5476624 674 224 666.3888416 224 657 Z"/></g><g transform="translate(-62,-158) scale(1,1)"><path fill="none" stroke="#000000" d="M 224 657 C 224 647.6111584 268.5476624 640 323.5 640 C 378.4523376 640 423 647.6111584 423 657 C 423 666.3888416 378.4523376 674 323.5 674 C 268.5476624 674 224 666.3888416 224 657 Z" stroke-miterlimit="10"/></g><g transform="translate(-62,-158) scale(1,1)"><g><path fill="none" stroke="none"/><text fill="#000000" stroke="none" font-family="Arial" font-size="13px" font-style="normal" font-weight="bold" text-decoration="none" x="263.27978515625" y="664">Visualiza notificacion</text></g></g><g transform="translate(-62,-158) scale(1,1)"><path fill="none" stroke="#000000" d="M 329 555 L 324 639" stroke-miterlimit="10" stroke-dasharray="3"/></g><g transform="translate(-62,-158) scale(1,1)"><path fill="none" stroke="#000000" d="M 320.40177214177027 628.6051572267658 L 324 639 L 328.80593249551333 629.1054048668695" stroke-miterlimit="10"/></g><g transform="translate(-62,-158) scale(1,1)"><g><path fill="none" stroke="none"/><text fill="#000000" stroke="none" font-family="Arial" font-size="13px" font-style="normal" font-weight="normal" text-decoration="none" x="327.5" y="604.5">«include»</text></g></g><g transform="translate(-62,-158) scale(1,1)"><path fill="none" stroke="#000000" d="M 130 641 L 223 649" stroke-miterlimit="10"/></g><g transform="translate(-62,-158) scale(1,1)"><path fill="none" stroke="#000000" d="M 212.51394142179421 652.3230370889349 L 223 649 L 213.23549481171105 643.9349789311516" stroke-miterlimit="10"/></g><g transform="translate(-62,-158) scale(1,1)"><path fill="#C0C0C0" stroke="none" d="M 119 528 C 119 518.6111584 146.0867696 511 179.5 511 C 212.9132304 511 240 518.6111584 240 528 C 240 537.3888416 212.9132304 545 179.5 545 C 146.0867696 545 119 537.3888416 119 528 Z" opacity="0.2"/></g><g transform="translate(-62,-158) scale(1,1)"><path fill="#ffffff" stroke="none" d="M 112 521 C 112 511.6111584 139.0867696 504 172.5 504 C 205.9132304 504 233 511.6111584 233 521 C 233 530.3888416 205.9132304 538 172.5 538 C 139.0867696 538 112 530.3888416 112 521 Z"/></g><g transform="translate(-62,-158) scale(1,1)"><path fill="none" stroke="#000000" d="M 112 521 C 112 511.6111584 139.0867696 504 172.5 504 C 205.9132304 504 233 511.6111584 233 521 C 233 530.3888416 205.9132304 538 172.5 538 C 139.0867696 538 112 530.3888416 112 521 Z" stroke-miterlimit="10"/></g><g transform="translate(-62,-158) scale(1,1)"><g><path fill="none" stroke="none"/><text fill="#000000" stroke="none" font-family="Arial" font-size="13px" font-style="normal" font-weight="bold" text-decoration="none" x="136.724609375" y="528">Apaga luces</text></g></g><g transform="translate(-62,-158) scale(1,1)"><path fill="none" stroke="#000000" d="M 124 599 L 161 539" stroke-miterlimit="10"/></g><g transform="translate(-62,-158) scale(1,1)"><path fill="none" stroke="#000000" d="M 159.24874566451362 549.8597011124818 L 161 539 L 152.0827078855002 545.4406444820903" stroke-miterlimit="10"/></g><g transform="translate(-62,-158) scale(1,1)"><path fill="#C0C0C0" stroke="none" d="M 407 472 C 407 462.6111584 441.697928 455 484.5 455 C 527.302072 455 562 462.6111584 562 472 C 562 481.3888416 527.302072 489 484.5 489 C 441.697928 489 407 481.3888416 407 472 Z" opacity="0.2"/></g><g transform="translate(-62,-158) scale(1,1)"><path fill="#ffffff" stroke="none" d="M 400 465 C 400 455.6111584 434.697928 448 477.5 448 C 520.302072 448 555 455.6111584 555 465 C 555 474.3888416 520.302072 482 477.5 482 C 434.697928 482 400 474.3888416 400 465 Z"/></g><g transform="translate(-62,-158) scale(1,1)"><path fill="none" stroke="#000000" d="M 400 465 C 400 455.6111584 434.697928 448 477.5 448 C 520.302072 448 555 455.6111584 555 465 C 555 474.3888416 520.302072 482 477.5 482 C 434.697928 482 400 474.3888416 400 465 Z" stroke-miterlimit="10"/></g><g transform="translate(-62,-158) scale(1,1)"><g><path fill="none" stroke="none"/><text fill="#000000" stroke="none" font-family="Arial" font-size="13px" font-style="normal" font-weight="bold" text-decoration="none" x="431.254150390625" y="472">Control de faros</text></g></g><g transform="translate(-62,-158) scale(1,1)"><path fill="none" stroke="#000000" d="M 367 519 L 440 483" stroke-miterlimit="10" stroke-dasharray="3"/></g><g transform="translate(-62,-158) scale(1,1)"><path fill="none" stroke="#000000" d="M 432.7472310183033 491.2702685626368 L 440 483 L 429.0235548877884 483.71948085353716" stroke-miterlimit="10"/></g><g transform="translate(-62,-158) scale(1,1)"><g><path fill="none" stroke="none"/><text fill="#000000" stroke="none" font-family="Arial" font-size="13px" font-style="normal" font-weight="normal" text-decoration="none" x="361.5" y="480.5">«include»</text></g></g><g transform="translate(-62,-158) scale(1,1)"><path fill="none" stroke="#000000" d="M 279 532 L 234 527" stroke-miterlimit="10" stroke-dasharray="3"/></g><g transform="translate(-62,-158) scale(1,1)"><path fill="none" stroke="#000000" d="M 244.5653807116052 523.9385084650058 L 234 527 L 243.63565377193316 532.3060509220539" stroke-miterlimit="10"/></g><g transform="translate(-62,-158) scale(1,1)"><g><path fill="none" stroke="none"/><text fill="#000000" stroke="none" font-family="Arial" font-size="13px" font-style="normal" font-weight="normal" text-decoration="none" x="225.5" y="564.5">«include»</text></g></g><g transform="translate(-62,-158) scale(1,1)"><path fill="none" stroke="#000000" d="M 523 336 L 483 447" stroke-miterlimit="10"/></g><g transform="translate(-62,-158) scale(1,1)"><path fill="none" stroke="#000000" d="M 482.48511845703604 436.01205674401643 L 483 447 L 490.40557295706134 438.86627458186337" stroke-miterlimit="10"/></g></g></svg>