<svg version="1.1" xmlns="http://www.w3.org/2000/svg" xmlns:xlink="http://www.w3.org/1999/xlink" width="746.67431640625" height="616"><defs/><g><text fill="#eeeeee" stroke="none" font-family="Arial" font-size="24px" font-style="normal" font-weight="normal" text-decoration="none" x="0" y="0">UNREGISTERED</text><text fill="#eeeeee" stroke="none" font-family="Arial" font-size="24px" font-style="normal" font-weight="normal" text-decoration="none" x="0" y="30">UNREGISTERED</text><text fill="#eeeeee" stroke="none" font-family="Arial" font-size="24px" font-style="normal" font-weight="normal" text-decoration="none" x="0" y="60">UNREGISTERED</text><text fill="#eeeeee" stroke="none" font-family="Arial" font-size="24px" font-style="normal" font-weight="normal" text-decoration="none" x="0" y="90">UNREGISTERED</text><text fill="#eeeeee" stroke="none" font-family="Arial" font-size="24px" font-style="normal" font-weight="normal" text-decoration="none" x="0" y="120">UNREGISTERED</text><text fill="#eeeeee" stroke="none" font-family="Arial" font-size="24px" font-style="normal" font-weight="normal" text-decoration="none" x="0" y="150">UNREGISTERED</text><text fill="#eeeeee" stroke="none" font-family="Arial" font-size="24px" font-style="normal" font-weight="normal" text-decoration="none" x="0" y="180">UNREGISTERED</text><text fill="#eeeeee" stroke="none" font-family="Arial" font-size="24px" font-style="normal" font-weight="normal" text-decoration="none" x="0" y="210">UNREGISTERED</text><text fill="#eeeeee" stroke="none" font-family="Arial" font-size="24px" font-style="normal" font-weight="normal" text-decoration="none" x="0" y="240">UNREGISTERED</text><text fill="#eeeeee" stroke="none" font-family="Arial" font-size="24px" font-style="normal" font-weight="normal" text-decoration="none" x="0" y="270">UNREGISTERED</text><text fill="#eeeeee" stroke="none" font-family="Arial" font-size="24px" font-style="normal" font-weight="normal" text-decoration="none" x="0" y="300">UNREGISTERED</text><text fill="#eeeeee" stroke="none" font-family="Arial" font-size="24px" font-style="normal" font-weight="normal" text-decoration="none" x="0" y="330">UNREGISTERED</text><text fill="#eeeeee" stroke="none" font-family="Arial" font-size="24px" font-style="normal" font-weight="normal" text-decoration="none" x="0" y="360">UNREGISTERED</text><text fill="#eeeeee" stroke="none" font-family="Arial" font-size="24px" font-style="normal" font-weight="normal" text-decoration="none" x="0" y="390">UNREGISTERED</text><text fill="#eeeeee" stroke="none" font-family="Arial" font-size="24px" font-style="normal" font-weight="normal" text-decoration="none" x="0" y="420">UNREGISTERED</text><text fill="#eeeeee" stroke="none" font-family="Arial" font-size="24px" font-style="normal" font-weight="normal" text-decoration="none" x="0" y="450">UNREGISTERED</text><text fill="#eeeeee" stroke="none" font-family="Arial" font-size="24px" font-style="normal" font-weight="normal" text-decoration="none" x="0" y="480">UNREGISTERED</text><text fill="#eeeeee" stroke="none" font-family="Arial" font-size="24px" font-style="normal" font-weight="normal" text-decoration="none" x="0" y="510">UNREGISTERED</text><text fill="#eeeeee" stroke="none" font-family="Arial" font-size="24px" font-style="normal" font-weight="normal" text-decoration="none" x="0" y="540">UNREGISTERED</text><text fill="#eeeeee" stroke="none" font-family="Arial" font-size="24px" font-style="normal" font-weight="normal" text-decoration="none" x="0" y="570">UNREGISTERED</text><text fill="#eeeeee" stroke="none" font-family="Arial" font-size="24px" font-style="normal" font-weight="normal" text-decoration="none" x="0" y="600">UNREGISTERED</text><text fill="#eeeeee" stroke="none" font-family="Arial" font-size="24px" font-style="normal" font-weight="normal" text-decoration="none" x="200" y="0">UNREGISTERED</text><text fill="#eeeeee" stroke="none" font-family="Arial" font-size="24px" font-style="normal" font-weight="normal" text-decoration="none" x="200" y="30">UNREGISTERED</text><text fill="#eeeeee" stroke="none" font-family="Arial" font-size="24px" font-style="normal" font-weight="normal" text-decoration="none" x="200" y="60">UNREGISTERED</text><text fill="#eeeeee" stroke="none" font-family="Arial" font-size="24px" font-style="normal" font-weight="normal" text-decoration="none" x="200" y="90">UNREGISTERED</text><text fill="#eeeeee" stroke="none" font-family="Arial" font-size="24px" font-style="normal" font-weight="normal" text-decoration="none" x="200" y="120">UNREGISTERED</text><text fill="#eeeeee" stroke="none" font-family="Arial" font-size="24px" font-style="normal" font-weight="normal" text-decoration="none" x="200" y="150">UNREGISTERED</text><text fill="#eeeeee" stroke="none" font-family="Arial" font-size="24px" font-style="normal" font-weight="normal" text-decoration="none" x="200" y="180">UNREGISTERED</text><text fill="#eeeeee" stroke="none" font-family="Arial" font-size="24px" font-style="normal" font-weight="normal" text-decoration="none" x="200" y="210">UNREGISTERED</text><text fill="#eeeeee" stroke="none" font-family="Arial" font-size="24px" font-style="normal" font-weight="normal" text-decoration="none" x="200" y="240">UNREGISTERED</text><text fill="#eeeeee" stroke="none" font-family="Arial" font-size="24px" font-style="normal" font-weight="normal" text-decoration="none" x="200" y="270">UNREGISTERED</text><text fill="#eeeeee" stroke="none" font-family="Arial" font-size="24px" font-style="normal" font-weight="normal" text-decoration="none" x="200" y="300">UNREGISTERED</text><text fill="#eeeeee" stroke="none" font-family="Arial" font-size="24px" font-style="normal" font-weight="normal" text-decoration="none" x="200" y="330">UNREGISTERED</text><text fill="#eeeeee" stroke="none" font-family="Arial" font-size="24px" font-style="normal" font-weight="normal" text-decoration="none" x="200" y="360">UNREGISTERED</text><text fill="#eeeeee" stroke="none" font-family="Arial" font-size="24px" font-style="normal" font-weight="normal" text-decoration="none" x="200" y="390">UNREGISTERED</text><text fill="#eeeeee" stroke="none" font-family="Arial" font-size="24px" font-style="normal" font-weight="normal" text-decoration="none" x="200" y="420">UNREGISTERED</text><text fill="#eeeeee" stroke="none" font-family="Arial" font-size="24px" font-style="normal" font-weight="normal" text-decoration="none" x="200" y="450">UNREGISTERED</text><text fill="#eeeeee" stroke="none" font-family="Arial" font-size="24px" font-style="normal" font-weight="normal" text-decoration="none" x="200" y="480">UNREGISTERED</text><text fill="#eeeeee" stroke="none" font-family="Arial" font-size="24px" font-style="normal" font-weight="normal" text-decoration="none" x="200" y="510">UNREGISTERED</text><text fill="#eeeeee" stroke="none" font-family="Arial" font-size="24px" font-style="normal" font-weight="normal" text-decoration="none" x="200" y="540">UNREGISTERED</text><text fill="#eeeeee" stroke="none" font-family="Arial" font-size="24px" font-style="normal" font-weight="normal" text-decoration="none" x="200" y="570">UNREGISTERED</text><text fill="#eeeeee" stroke="none" font-family="Arial" font-size="24px" font-style="normal" font-weight="normal" text-decoration="none" x="200" y="600">UNREGISTERED</text><text fill="#eeeeee" stroke="none" font-family="Arial" font-size="24px" font-style="normal" font-weight="normal" text-decoration="none" x="400" y="0">UNREGISTERED</text><text fill="#eeeeee" stroke="none" font-family="Arial" font-size="24px" font-style="normal" font-weight="normal" text-decoration="none" x="400" y="30">UNREGISTERED</text><text fill="#eeeeee" stroke="none" font-family="Arial" font-size="24px" font-style="normal" font-weight="normal" text-decoration="none" x="400" y="60">UNREGISTERED</text><text fill="#eeeeee" stroke="none" font-family="Arial" font-size="24px" font-style="normal" font-weight="normal" text-decoration="none" x="400" y="90">UNREGISTERED</text><text fill="#eeeeee" stroke="none" font-family="Arial" font-size="24px" font-style="normal" font-weight="normal" text-decoration="none" x="400" y="120">UNREGISTERED</text><text fill="#eeeeee" stroke="none" font-family="Arial" font-size="24px" font-style="normal" font-weight="normal" text-decoration="none" x="400" y="150">UNREGISTERED</text><text fill="#eeeeee" stroke="none" font-family="Arial" font-size="24px" font-style="normal" font-weight="normal" text-decoration="none" x="400" y="180">UNREGISTERED</text><text fill="#eeeeee" stroke="none" font-family="Arial" font-size="24px" font-style="normal" font-weight="normal" text-decoration="none" x="400" y="210">UNREGISTERED</text><text fill="#eeeeee" stroke="none" font-family="Arial" font-size="24px" font-style="normal" font-weight="normal" text-decoration="none" x="400" y="240">UNREGISTERED</text><text fill="#eeeeee" stroke="none" font-family="Arial" font-size="24px" font-style="normal" font-weight="normal" text-decoration="none" x="400" y="270">UNREGISTERED</text><text fill="#eeeeee" stroke="none" font-family="Arial" font-size="24px" font-style="normal" font-weight="normal" text-decoration="none" x="400" y="300">UNREGISTERED</text><text fill="#eeeeee" stroke="none" font-family="Arial" font-size="24px" font-style="normal" font-weight="normal" text-decoration="none" x="400" y="330">UNREGISTERED</text><text fill="#eeeeee" stroke="none" font-family="Arial" font-size="24px" font-style="normal" font-weight="normal" text-decoration="none" x="400" y="360">UNREGISTERED</text><text fill="#eeeeee" stroke="none" font-family="Arial" font-size="24px" font-style="normal" font-weight="normal" text-decoration="none" x="400" y="390">UNREGISTERED</text><text fill="#eeeeee" stroke="none" font-family="Arial" font-size="24px" font-style="normal" font-weight="normal" text-decoration="none" x="400" y="420">UNREGISTERED</text><text fill="#eeeeee" stroke="none" font-family="Arial" font-size="24px" font-style="normal" font-weight="normal" text-decoration="none" x="400" y="450">UNREGISTERED</text><text fill="#eeeeee" stroke="none" font-family="Arial" font-size="24px" font-style="normal" font-weight="normal" text-decoration="none" x="400" y="480">UNREGISTERED</text><text fill="#eeeeee" stroke="none" font-family="Arial" font-size="24px" font-style="normal" font-weight="normal" text-decoration="none" x="400" y="510">UNREGISTERED</text><text fill="#eeeeee" stroke="none" font-family="Arial" font-size="24px" font-style="normal" font-weight="normal" text-decoration="none" x="400" y="540">UNREGISTERED</text><text fill="#eeeeee" stroke="none" font-family="Arial" font-size="24px" font-style="normal" font-weight="normal" text-decoration="none" x="400" y="570">UNREGISTERED</text><text fill="#eeeeee" stroke="none" font-family="Arial" font-size="24px" font-style="normal" font-weight="normal" text-decoration="none" x="400" y="600">UNREGISTERED</text><text fill="#eeeeee" stroke="none" font-family="Arial" font-size="24px" font-style="normal" font-weight="normal" text-decoration="none" x="600" y="0">UNREGISTERED</text><text fill="#eeeeee" stroke="none" font-family="Arial" font-size="24px" font-style="normal" font-weight="normal" text-decoration="none" x="600" y="30">UNREGISTERED</text><text fill="#eeeeee" stroke="none" font-family="Arial" font-size="24px" font-style="normal" font-weight="normal" text-decoration="none" x="600" y="60">UNREGISTERED</text><text fill="#eeeeee" stroke="none" font-family="Arial" font-size="24px" font-style="normal" font-weight="normal" text-decoration="none" x="600" y="90">UNREGISTERED</text><text fill="#eeeeee" stroke="none" font-family="Arial" font-size="24px" font-style="normal" font-weight="normal" text-decoration="none" x="600" y="120">UNREGISTERED</text><text fill="#eeeeee" stroke="none" font-family="Arial" font-size="24px" font-style="normal" font-weight="normal" text-decoration="none" x="600" y="150">UNREGISTERED</text><text fill="#eeeeee" stroke="none" font-family="Arial" font-size="24px" font-style="normal" font-weight="normal" text-decoration="none" x="600" y="180">UNREGISTERED</text><text fill="#eeeeee" stroke="none" font-family="Arial" font-size="24px" font-style="normal" font-weight="normal" text-decoration="none" x="600" y="210">UNREGISTERED</text><text fill="#eeeeee" stroke="none" font-family="Arial" font-size="24px" font-style="normal" font-weight="normal" text-decoration="none" x="600" y="240">UNREGISTERED</text><text fill="#eeeeee" stroke="none" font-family="Arial" font-size="24px" font-style="normal" font-weight="normal" text-decoration="none" x="600" y="270">UNREGISTERED</text><text fill="#eeeeee" stroke="none" font-family="Arial" font-size="24px" font-style="normal" font-weight="normal" text-decoration="none" x="600" y="300">UNREGISTERED</text><text fill="#eeeeee" stroke="none" font-family="Arial" font-size="24px" font-style="normal" font-weight="normal" text-decoration="none" x="600" y="330">UNREGISTERED</text><text fill="#eeeeee" stroke="none" font-family="Arial" font-size="24px" font-style="normal" font-weight="normal" text-decoration="none" x="600" y="360">UNREGISTERED</text><text fill="#eeeeee" stroke="none" font-family="Arial" font-size="24px" font-style="normal" font-weight="normal" text-decoration="none" x="600" y="390">UNREGISTERED</text><text fill="#eeeeee" stroke="none" font-family="Arial" font-size="24px" font-style="normal" font-weight="normal" text-decoration="none" x="600" y="420">UNREGISTERED</text><text fill="#eeeeee" stroke="none" font-family="Arial" font-size="24px" font-style="normal" font-weight="normal" text-decoration="none" x="600" y="450">UNREGISTERED</text><text fill="#eeeeee" stroke="none" font-family="Arial" font-size="24px" font-style="normal" font-weight="normal" text-decoration="none" x="600" y="480">UNREGISTERED</text><text fill="#eeeeee" stroke="none" font-family="Arial" font-size="24px" font-style="normal" font-weight="normal" text-decoration="none" x="600" y="510">UNREGISTERED</text><text fill="#eeeeee" stroke="none" font-family="Arial" font-size="24px" font-style="normal" font-weight="normal" text-decoration="none" x="600" y="540">UNREGISTERED</text><text fill="#eeeeee" stroke="none" font-family="Arial" font-size="24px" font-style="normal" font-weight="normal" text-decoration="none" x="600" y="570">UNREGISTERED</text><text fill="#eeeeee" stroke="none" font-family="Arial" font-size="24px" font-style="normal" font-weight="normal" text-decoration="none" x="600" y="600">UNREGISTERED</text><g transform="translate(-22,-94) scale(1,1)"><rect fill="#C0C0C0" stroke="none" x="39" y="407" width="81.40087890625" height="24" opacity="0.2"/></g><g transform="translate(-22,-94) scale(1,1)"><rect fill="#ffffff" stroke="none" x="32" y="400" width="81.40087890625" height="24"/></g><g transform="translate(-22,-94) scale(1,1)"><path fill="none" stroke="#000000" d="M 32 400 L 113.40087890625 400 L 113.40087890625 424 L 32 424 L 32 400 Z Z" stroke-miterlimit="10"/></g><g transform="translate(-22,-94) scale(1,1)"><rect fill="#ffffff" stroke="none" x="32" y="400" width="81.40087890625" height="24"/></g><g transform="translate(-22,-94) scale(1,1)"><path fill="none" stroke="#000000" d="M 32 400 L 113.40087890625 400 L 113.40087890625 424 L 32 424 L 32 400 Z Z" stroke-miterlimit="10"/></g><g transform="translate(-22,-94) scale(1,1)"><g><path fill="none" stroke="none"/><text fill="#000000" stroke="none" font-family="Arial" font-size="13px" font-style="normal" font-weight="bold" text-decoration="none" x="50.302734375" y="419.5">Usuario</text><path fill="none" stroke="#000000" d="M 96.90087890625 419.5 L 48.5 419.5" stroke-miterlimit="10"/></g></g><g transform="translate(-22,-94) scale(1,1)"><rect fill="#C0C0C0" stroke="none" x="551" y="231" width="133.96630859375" height="32" opacity="0.2"/></g><g transform="translate(-22,-94) scale(1,1)"><rect fill="#ffffff" stroke="none" x="544" y="224" width="133.96630859375" height="32"/></g><g transform="translate(-22,-94) scale(1,1)"><path fill="none" stroke="#000000" d="M 544 224 L 677.96630859375 224 L 677.96630859375 256 L 544 256 L 544 224 Z Z" stroke-miterlimit="10"/></g><g transform="translate(-22,-94) scale(1,1)"><rect fill="#ffffff" stroke="none" x="544" y="224" width="133.96630859375" height="32"/></g><g transform="translate(-22,-94) scale(1,1)"><path fill="none" stroke="#000000" d="M 544 224 L 677.96630859375 224 L 677.96630859375 256 L 544 256 L 544 224 Z Z" stroke-miterlimit="10"/></g><g transform="translate(-22,-94) scale(1,1)"><g><path fill="none" stroke="none"/><text fill="#000000" stroke="none" font-family="Arial" font-size="13px" font-style="normal" font-weight="bold" text-decoration="none" x="568.94580078125" y="243.5">Tiendas online</text><path fill="none" stroke="#000000" d="M 656.3720703125 243.5 L 565.59423828125 243.5" stroke-miterlimit="10"/></g></g><g transform="translate(-22,-94) scale(1,1)"><path fill="none" stroke="#000000" d="M 72 424 L 72 512 L 296 512 L 296 464" stroke-miterlimit="10"/></g><g transform="translate(-22,-94) scale(1,1)"><path fill="none" stroke="#000000" d="M 300.209517756016 474.16267485762415 L 296 464 L 291.790482243984 474.16267485762415" stroke-miterlimit="10"/></g><g transform="translate(-22,-94) scale(1,1)"><g><path fill="none" stroke="none"/><text fill="#000000" stroke="none" font-family="Arial" font-size="13px" font-style="normal" font-weight="normal" text-decoration="none" x="118.5" y="527.5">+Escaneo de producto</text></g></g><g transform="translate(-22,-94) scale(1,1)"><path fill="none" stroke="#000000" d="M 88 400 L 88 344 L 280 344 L 280 368" stroke-miterlimit="10"/></g><g transform="translate(-22,-94) scale(1,1)"><path fill="none" stroke="#000000" d="M 275.790482243984 357.83732514237585 L 280 368 L 284.209517756016 357.83732514237585" stroke-miterlimit="10"/></g><g transform="translate(-22,-94) scale(1,1)"><g><path fill="none" stroke="none"/><text fill="#000000" stroke="none" font-family="Arial" font-size="13px" font-style="normal" font-weight="normal" text-decoration="none" x="127.5" y="335.5">+Lista de productos</text></g></g><g transform="translate(-22,-94) scale(1,1)"><path fill="none" stroke="#000000" d="M 408 368 L 408 312 L 560 312 L 560 256" stroke-miterlimit="10"/></g><g transform="translate(-22,-94) scale(1,1)"><path fill="none" stroke="#000000" d="M 564.209517756016 266.16267485762415 L 560 256 L 555.790482243984 266.16267485762415" stroke-miterlimit="10"/></g><g transform="translate(-22,-94) scale(1,1)"><g><path fill="none" stroke="none"/><text fill="#000000" stroke="none" font-family="Arial" font-size="13px" font-style="normal" font-weight="normal" text-decoration="none" x="414.5" y="332.5">+Pedido de informacion</text></g></g><g transform="translate(-22,-94) scale(1,1)"><path fill="none" stroke="#000000" d="M 610 256 L 610 404 L 416 404" stroke-miterlimit="10"/></g><g transform="translate(-22,-94) scale(1,1)"><path fill="none" stroke="#000000" d="M 426.16267485762415 399.790482243984 L 416 404 L 426.16267485762415 408.209517756016" stroke-miterlimit="10"/></g><g transform="translate(-22,-94) scale(1,1)"><g><path fill="none" stroke="none"/><text fill="#000000" stroke="none" font-family="Arial" font-size="13px" font-style="normal" font-weight="normal" text-decoration="none" x="608.5" y="316.5">+Informacion del producto</text></g></g><g transform="translate(-22,-94) scale(1,1)"><path fill="none" stroke="#000000" d="M 88 424 L 88 496 L 280 496 L 280 464" stroke-miterlimit="10"/></g><g transform="translate(-22,-94) scale(1,1)"><path fill="none" stroke="#000000" d="M 284.209517756016 474.16267485762415 L 280 464 L 275.790482243984 474.16267485762415" stroke-miterlimit="10"/></g><g transform="translate(-22,-94) scale(1,1)"><g><path fill="none" stroke="none"/><text fill="#000000" stroke="none" font-family="Arial" font-size="13px" font-style="normal" font-weight="normal" text-decoration="none" x="151.3017578125" y="487.5">+Ubicacion</text></g></g><g transform="translate(-22,-94) scale(1,1)"><rect fill="#C0C0C0" stroke="none" x="423" y="671" width="90.6181640625" height="24" opacity="0.2"/></g><g transform="translate(-22,-94) scale(1,1)"><rect fill="#ffffff" stroke="none" x="416" y="664" width="90.6181640625" height="24"/></g><g transform="translate(-22,-94) scale(1,1)"><path fill="none" stroke="#000000" d="M 416 664 L 506.6181640625 664 L 506.6181640625 688 L 416 688 L 416 664 Z Z" stroke-miterlimit="10"/></g><g transform="translate(-22,-94) scale(1,1)"><rect fill="#ffffff" stroke="none" x="416" y="664" width="90.6181640625" height="24"/></g><g transform="translate(-22,-94) scale(1,1)"><path fill="none" stroke="#000000" d="M 416 664 L 506.6181640625 664 L 506.6181640625 688 L 416 688 L 416 664 Z Z" stroke-miterlimit="10"/></g><g transform="translate(-22,-94) scale(1,1)"><g><path fill="none" stroke="none"/><text fill="#000000" stroke="none" font-family="Arial" font-size="13px" font-style="normal" font-weight="bold" text-decoration="none" x="422.648681640625" y="683.5">Google Maps</text><path fill="none" stroke="#000000" d="M 502.1181640625 683.5 L 420.5 683.5" stroke-miterlimit="10"/></g></g><g transform="translate(-22,-94) scale(1,1)"><path fill="none" stroke="#000000" d="M 352 464 L 352 680 L 416 680" stroke-miterlimit="10"/></g><g transform="translate(-22,-94) scale(1,1)"><path fill="none" stroke="#000000" d="M 405.83732514237585 684.209517756016 L 416 680 L 405.83732514237585 675.790482243984" stroke-miterlimit="10"/></g><g transform="translate(-22,-94) scale(1,1)"><g><path fill="none" stroke="none"/><text fill="#000000" stroke="none" font-family="Arial" font-size="13px" font-style="normal" font-weight="normal" text-decoration="none" x="271.5" y="700.5">+Ubicacion del usuario</text></g></g><g transform="translate(-22,-94) scale(1,1)"><path fill="none" stroke="#000000" d="M 472 664 L 472 440 L 416 440" stroke-miterlimit="10"/></g><g transform="translate(-22,-94) scale(1,1)"><path fill="none" stroke="#000000" d="M 426.16267485762415 435.790482243984 L 416 440 L 426.16267485762415 444.209517756016" stroke-miterlimit="10"/></g><g transform="translate(-22,-94) scale(1,1)"><g><path fill="none" stroke="none"/><text fill="#000000" stroke="none" font-family="Arial" font-size="13px" font-style="normal" font-weight="normal" text-decoration="none" x="478.5" y="539.5">+Tiendas Cercanas</text></g></g><g transform="translate(-22,-94) scale(1,1)"><rect fill="#C0C0C0" stroke="none" x="271" y="375" width="151.5380859375" height="96" opacity="0.2"/></g><g transform="translate(-22,-94) scale(1,1)"><rect fill="#ffffff" stroke="none" x="264" y="368" width="151.5380859375" height="96"/></g><g transform="translate(-22,-94) scale(1,1)"><path fill="none" stroke="#000000" d="M 264 368 L 415.5380859375 368 L 415.5380859375 464 L 264 464 L 264 368 Z Z" stroke-miterlimit="10"/></g><g transform="translate(-22,-94) scale(1,1)"><rect fill="#ffffff" stroke="none" x="264" y="368" width="151.5380859375" height="96"/></g><g transform="translate(-22,-94) scale(1,1)"><path fill="none" stroke="#000000" d="M 264 368 L 415.5380859375 368 L 415.5380859375 464 L 264 464 L 264 368 Z Z" stroke-miterlimit="10"/></g><g transform="translate(-22,-94) scale(1,1)"><g><path fill="none" stroke="none"/><text fill="#000000" stroke="none" font-family="Arial" font-size="13px" font-style="normal" font-weight="bold" text-decoration="none" x="317.733154296875" y="387.5">Xmatch</text><path fill="none" stroke="#000000" d="M 363.2490234375 387.5 L 316.2890625 387.5" stroke-miterlimit="10"/></g></g><g transform="translate(-22,-94) scale(1,1)"><rect fill="#C0C0C0" stroke="none" x="191" y="143" width="232.708984375" height="24" opacity="0.2"/></g><g transform="translate(-22,-94) scale(1,1)"><rect fill="#ffffff" stroke="none" x="184" y="136" width="232.708984375" height="24"/></g><g transform="translate(-22,-94) scale(1,1)"><path fill="none" stroke="#000000" d="M 184 136 L 416.708984375 136 L 416.708984375 160 L 184 160 L 184 136 Z Z" stroke-miterlimit="10"/></g><g transform="translate(-22,-94) scale(1,1)"><rect fill="#ffffff" stroke="none" x="184" y="136" width="232.708984375" height="24"/></g><g transform="translate(-22,-94) scale(1,1)"><path fill="none" stroke="#000000" d="M 184 136 L 416.708984375 136 L 416.708984375 160 L 184 160 L 184 136 Z Z" stroke-miterlimit="10"/></g><g transform="translate(-22,-94) scale(1,1)"><g><path fill="none" stroke="none"/><text fill="#000000" stroke="none" font-family="Arial" font-size="13px" font-style="normal" font-weight="bold" text-decoration="none" x="229.90185546875" y="155.5">Comparacion de precios</text><path fill="none" stroke="#000000" d="M 376.208984375 155.5 L 224.5 155.5" stroke-miterlimit="10"/></g></g><g transform="translate(-22,-94) scale(1,1)"><path fill="none" stroke="#000000" d="M 304 368 L 304 160" stroke-miterlimit="10"/></g><g transform="translate(-22,-94) scale(1,1)"><path fill="none" stroke="#000000" d="M 308.209517756016 170.16267485762415 L 304 160 L 299.790482243984 170.16267485762415" stroke-miterlimit="10"/></g><g transform="translate(-22,-94) scale(1,1)"><g><path fill="none" stroke="none"/><text fill="#000000" stroke="none" font-family="Arial" font-size="13px" font-style="normal" font-weight="normal" text-decoration="none" x="141.5" y="236.5">+Informacion de productos</text></g></g><g transform="translate(-22,-94) scale(1,1)"><path fill="none" stroke="#000000" d="M 184 144 L 64 144 L 64 400" stroke-miterlimit="10"/></g><g transform="translate(-22,-94) scale(1,1)"><path fill="none" stroke="#000000" d="M 59.790482243984016 389.83732514237585 L 64 400 L 68.20951775601598 389.83732514237585" stroke-miterlimit="10"/></g><g transform="translate(-22,-94) scale(1,1)"><g><path fill="none" stroke="none"/><text fill="#000000" stroke="none" font-family="Arial" font-size="13px" font-style="normal" font-weight="normal" text-decoration="none" x="86.5" y="164.5">+Mejor precio</text></g></g><g transform="translate(-22,-94) scale(1,1)"><path fill="none" stroke="#000000" d="M 264 416 L 113 416" stroke-miterlimit="10"/></g><g transform="translate(-22,-94) scale(1,1)"><path fill="none" stroke="#000000" d="M 123.16267485762415 411.790482243984 L 113 416 L 123.16267485762415 420.209517756016" stroke-miterlimit="10"/></g><g transform="translate(-22,-94) scale(1,1)"><g><path fill="none" stroke="none"/><text fill="#000000" stroke="none" font-family="Arial" font-size="13px" font-style="normal" font-weight="normal" text-decoration="none" x="130.5" y="437.5">+Tiendas Cercanas</text></g></g><g transform="translate(-22,-94) scale(1,1)"><path fill="none" stroke="#000000" d="M 344 368 L 344 160" stroke-miterlimit="10"/></g><g transform="translate(-22,-94) scale(1,1)"><path fill="none" stroke="#000000" d="M 348.209517756016 170.16267485762415 L 344 160 L 339.790482243984 170.16267485762415" stroke-miterlimit="10"/></g><g transform="translate(-22,-94) scale(1,1)"><g><path fill="none" stroke="none"/><text fill="#000000" stroke="none" font-family="Arial" font-size="13px" font-style="normal" font-weight="normal" text-decoration="none" x="349.5" y="235.5">+Tiendas comparadas</text></g></g><g transform="translate(-22,-94) scale(1,1)"><path fill="none" stroke="#000000" d="M 277 136 L 277 104 L 48 104 L 48 400" stroke-miterlimit="10"/></g><g transform="translate(-22,-94) scale(1,1)"><path fill="none" stroke="#000000" d="M 43.790482243984016 389.83732514237585 L 48 400 L 52.20951775601599 389.83732514237585" stroke-miterlimit="10"/></g><g transform="translate(-22,-94) scale(1,1)"><g><path fill="none" stroke="none"/><text fill="#000000" stroke="none" font-family="Arial" font-size="13px" font-style="normal" font-weight="normal" text-decoration="none" x="78.5" y="124.5">+Nombre de la tienda</text></g></g></g></svg>