<svg version="1.1" xmlns="http://www.w3.org/2000/svg" xmlns:xlink="http://www.w3.org/1999/xlink" width="405.29443359375" height="535"><defs/><g><text fill="#eeeeee" stroke="none" font-family="Arial" font-size="24px" font-style="normal" font-weight="normal" text-decoration="none" x="0" y="0">UNREGISTERED</text><text fill="#eeeeee" stroke="none" font-family="Arial" font-size="24px" font-style="normal" font-weight="normal" text-decoration="none" x="0" y="30">UNREGISTERED</text><text fill="#eeeeee" stroke="none" font-family="Arial" font-size="24px" font-style="normal" font-weight="normal" text-decoration="none" x="0" y="60">UNREGISTERED</text><text fill="#eeeeee" stroke="none" font-family="Arial" font-size="24px" font-style="normal" font-weight="normal" text-decoration="none" x="0" y="90">UNREGISTERED</text><text fill="#eeeeee" stroke="none" font-family="Arial" font-size="24px" font-style="normal" font-weight="normal" text-decoration="none" x="0" y="120">UNREGISTERED</text><text fill="#eeeeee" stroke="none" font-family="Arial" font-size="24px" font-style="normal" font-weight="normal" text-decoration="none" x="0" y="150">UNREGISTERED</text><text fill="#eeeeee" stroke="none" font-family="Arial" font-size="24px" font-style="normal" font-weight="normal" text-decoration="none" x="0" y="180">UNREGISTERED</text><text fill="#eeeeee" stroke="none" font-family="Arial" font-size="24px" font-style="normal" font-weight="normal" text-decoration="none" x="0" y="210">UNREGISTERED</text><text fill="#eeeeee" stroke="none" font-family="Arial" font-size="24px" font-style="normal" font-weight="normal" text-decoration="none" x="0" y="240">UNREGISTERED</text><text fill="#eeeeee" stroke="none" font-family="Arial" font-size="24px" font-style="normal" font-weight="normal" text-decoration="none" x="0" y="270">UNREGISTERED</text><text fill="#eeeeee" stroke="none" font-family="Arial" font-size="24px" font-style="normal" font-weight="normal" text-decoration="none" x="0" y="300">UNREGISTERED</text><text fill="#eeeeee" stroke="none" font-family="Arial" font-size="24px" font-style="normal" font-weight="normal" text-decoration="none" x="0" y="330">UNREGISTERED</text><text fill="#eeeeee" stroke="none" font-family="Arial" font-size="24px" font-style="normal" font-weight="normal" text-decoration="none" x="0" y="360">UNREGISTERED</text><text fill="#eeeeee" stroke="none" font-family="Arial" font-size="24px" font-style="normal" font-weight="normal" text-decoration="none" x="0" y="390">UNREGISTERED</text><text fill="#eeeeee" stroke="none" font-family="Arial" font-size="24px" font-style="normal" font-weight="normal" text-decoration="none" x="0" y="420">UNREGISTERED</text><text fill="#eeeeee" stroke="none" font-family="Arial" font-size="24px" font-style="normal" font-weight="normal" text-decoration="none" x="0" y="450">UNREGISTERED</text><text fill="#eeeeee" stroke="none" font-family="Arial" font-size="24px" font-style="normal" font-weight="normal" text-decoration="none" x="0" y="480">UNREGISTERED</text><text fill="#eeeeee" stroke="none" font-family="Arial" font-size="24px" font-style="normal" font-weight="normal" text-decoration="none" x="0" y="510">UNREGISTERED</text><text fill="#eeeeee" stroke="none" font-family="Arial" font-size="24px" font-style="normal" font-weight="normal" text-decoration="none" x="200" y="0">UNREGISTERED</text><text fill="#eeeeee" stroke="none" font-family="Arial" font-size="24px" font-style="normal" font-weight="normal" text-decoration="none" x="200" y="30">UNREGISTERED</text><text fill="#eeeeee" stroke="none" font-family="Arial" font-size="24px" font-style="normal" font-weight="normal" text-decoration="none" x="200" y="60">UNREGISTERED</text><text fill="#eeeeee" stroke="none" font-family="Arial" font-size="24px" font-style="normal" font-weight="normal" text-decoration="none" x="200" y="90">UNREGISTERED</text><text fill="#eeeeee" stroke="none" font-family="Arial" font-size="24px" font-style="normal" font-weight="normal" text-decoration="none" x="200" y="120">UNREGISTERED</text><text fill="#eeeeee" stroke="none" font-family="Arial" font-size="24px" font-style="normal" font-weight="normal" text-decoration="none" x="200" y="150">UNREGISTERED</text><text fill="#eeeeee" stroke="none" font-family="Arial" font-size="24px" font-style="normal" font-weight="normal" text-decoration="none" x="200" y="180">UNREGISTERED</text><text fill="#eeeeee" stroke="none" font-family="Arial" font-size="24px" font-style="normal" font-weight="normal" text-decoration="none" x="200" y="210">UNREGISTERED</text><text fill="#eeeeee" stroke="none" font-family="Arial" font-size="24px" font-style="normal" font-weight="normal" text-decoration="none" x="200" y="240">UNREGISTERED</text><text fill="#eeeeee" stroke="none" font-family="Arial" font-size="24px" font-style="normal" font-weight="normal" text-decoration="none" x="200" y="270">UNREGISTERED</text><text fill="#eeeeee" stroke="none" font-family="Arial" font-size="24px" font-style="normal" font-weight="normal" text-decoration="none" x="200" y="300">UNREGISTERED</text><text fill="#eeeeee" stroke="none" font-family="Arial" font-size="24px" font-style="normal" font-weight="normal" text-decoration="none" x="200" y="330">UNREGISTERED</text><text fill="#eeeeee" stroke="none" font-family="Arial" font-size="24px" font-style="normal" font-weight="normal" text-decoration="none" x="200" y="360">UNREGISTERED</text><text fill="#eeeeee" stroke="none" font-family="Arial" font-size="24px" font-style="normal" font-weight="normal" text-decoration="none" x="200" y="390">UNREGISTERED</text><text fill="#eeeeee" stroke="none" font-family="Arial" font-size="24px" font-style="normal" font-weight="normal" text-decoration="none" x="200" y="420">UNREGISTERED</text><text fill="#eeeeee" stroke="none" font-family="Arial" font-size="24px" font-style="normal" font-weight="normal" text-decoration="none" x="200" y="450">UNREGISTERED</text><text fill="#eeeeee" stroke="none" font-family="Arial" font-size="24px" font-style="normal" font-weight="normal" text-decoration="none" x="200" y="480">UNREGISTERED</text><text fill="#eeeeee" stroke="none" font-family="Arial" font-size="24px" font-style="normal" font-weight="normal" text-decoration="none" x="200" y="510">UNREGISTERED</text><text fill="#eeeeee" stroke="none" font-family="Arial" font-size="24px" font-style="normal" font-weight="normal" text-decoration="none" x="400" y="0">UNREGISTERED</text><text fill="#eeeeee" stroke="none" font-family="Arial" font-size="24px" font-style="normal" font-weight="normal" text-decoration="none" x="400" y="30">UNREGISTERED</text><text fill="#eeeeee" stroke="none" font-family="Arial" font-size="24px" font-style="normal" font-weight="normal" text-decoration="none" x="400" y="60">UNREGISTERED</text><text fill="#eeeeee" stroke="none" font-family="Arial" font-size="24px" font-style="normal" font-weight="normal" text-decoration="none" x="400" y="90">UNREGISTERED</text><text fill="#eeeeee" stroke="none" font-family="Arial" font-size="24px" font-style="normal" font-weight="normal" text-decoration="none" x="400" y="120">UNREGISTERED</text><text fill="#eeeeee" stroke="none" font-family="Arial" font-size="24px" font-style="normal" font-weight="normal" text-decoration="none" x="400" y="150">UNREGISTERED</text><text fill="#eeeeee" stroke="none" font-family="Arial" font-size="24px" font-style="normal" font-weight="normal" text-decoration="none" x="400" y="180">UNREGISTERED</text><text fill="#eeeeee" stroke="none" font-family="Arial" font-size="24px" font-style="normal" font-weight="normal" text-decoration="none" x="400" y="210">UNREGISTERED</text><text fill="#eeeeee" stroke="none" font-family="Arial" font-size="24px" font-style="normal" font-weight="normal" text-decoration="none" x="400" y="240">UNREGISTERED</text><text fill="#eeeeee" stroke="none" font-family="Arial" font-size="24px" font-style="normal" font-weight="normal" text-decoration="none" x="400" y="270">UNREGISTERED</text><text fill="#eeeeee" stroke="none" font-family="Arial" font-size="24px" font-style="normal" font-weight="normal" text-decoration="none" x="400" y="300">UNREGISTERED</text><text fill="#eeeeee" stroke="none" font-family="Arial" font-size="24px" font-style="normal" font-weight="normal" text-decoration="none" x="400" y="330">UNREGISTERED</text><text fill="#eeeeee" stroke="none" font-family="Arial" font-size="24px" font-style="normal" font-weight="normal" text-decoration="none" x="400" y="360">UNREGISTERED</text><text fill="#eeeeee" stroke="none" font-family="Arial" font-size="24px" font-style="normal" font-weight="normal" text-decoration="none" x="400" y="390">UNREGISTERED</text><text fill="#eeeeee" stroke="none" font-family="Arial" font-size="24px" font-style="normal" font-weight="normal" text-decoration="none" x="400" y="420">UNREGISTERED</text><text fill="#eeeeee" stroke="none" font-family="Arial" font-size="24px" font-style="normal" font-weight="normal" text-decoration="none" x="400" y="450">UNREGISTERED</text><text fill="#eeeeee" stroke="none" font-family="Arial" font-size="24px" font-style="normal" font-weight="normal" text-decoration="none" x="400" y="480">UNREGISTERED</text><text fill="#eeeeee" stroke="none" font-family="Arial" font-size="24px" font-style="normal" font-weight="normal" text-decoration="none" x="400" y="510">UNREGISTERED</text><g transform="translate(-214,-126) scale(1,1)"><rect fill="#C0C0C0" stroke="none" x="271" y="335" width="127.87890625" height="130" opacity="0.2"/></g><g transform="translate(-214,-126) scale(1,1)"><rect fill="#ffffff" stroke="none" x="264" y="328" width="127.87890625" height="130"/></g><g transform="translate(-214,-126) scale(1,1)"><path fill="none" stroke="#000000" d="M 264 328 L 391.87890625 328 L 391.87890625 458 L 264 458 L 264 328 Z Z" stroke-miterlimit="10"/></g><g transform="translate(-214,-126) scale(1,1)"><path fill="none" stroke="#000000" d="M 264 353 L 391.87890625 353" stroke-miterlimit="10"/></g><g transform="translate(-214,-126) scale(1,1)"><path fill="none" stroke="#000000" d="M 264 406 L 391.87890625 406" stroke-miterlimit="10"/></g><g transform="translate(-214,-126) scale(1,1)"><g><path fill="none" stroke="none"/><text fill="#000000" stroke="none" font-family="Arial" font-size="13px" font-style="normal" font-weight="bold" text-decoration="none" x="305.541748046875" y="347.5">Usuario</text></g></g><g transform="translate(-214,-126) scale(1,1)"><g><path fill="none" stroke="none"/><text fill="#000000" stroke="none" font-family="Arial" font-size="13px" font-style="normal" font-weight="normal" text-decoration="none" x="269" y="370.5">+Producto</text></g></g><g transform="translate(-214,-126) scale(1,1)"><g><path fill="none" stroke="none"/><text fill="#000000" stroke="none" font-family="Arial" font-size="13px" font-style="normal" font-weight="normal" text-decoration="none" x="269" y="385.5">+Ubicacion</text></g></g><g transform="translate(-214,-126) scale(1,1)"><g><path fill="none" stroke="none"/><text fill="#000000" stroke="none" font-family="Arial" font-size="13px" font-style="normal" font-weight="normal" text-decoration="none" x="269" y="400.5">+Precio</text></g></g><g transform="translate(-214,-126) scale(1,1)"><g><path fill="none" stroke="none"/><text fill="#000000" stroke="none" font-family="Arial" font-size="13px" font-style="normal" font-weight="normal" text-decoration="none" x="269" y="423.5">+consultar_precio()</text></g></g><g transform="translate(-214,-126) scale(1,1)"><g><path fill="none" stroke="none"/><text fill="#000000" stroke="none" font-family="Arial" font-size="13px" font-style="normal" font-weight="normal" text-decoration="none" x="269" y="438.5">+agragar_producto()</text></g></g><g transform="translate(-214,-126) scale(1,1)"><g><path fill="none" stroke="none"/><text fill="#000000" stroke="none" font-family="Arial" font-size="13px" font-style="normal" font-weight="normal" text-decoration="none" x="269" y="453.5">+buscar_tienda()</text></g></g><g transform="translate(-214,-126) scale(1,1)"><rect fill="#C0C0C0" stroke="none" x="231" y="559" width="159.67431640625" height="85" opacity="0.2"/></g><g transform="translate(-214,-126) scale(1,1)"><rect fill="#ffffff" stroke="none" x="224" y="552" width="159.67431640625" height="85"/></g><g transform="translate(-214,-126) scale(1,1)"><path fill="none" stroke="#000000" d="M 224 552 L 383.67431640625 552 L 383.67431640625 637 L 224 637 L 224 552 Z Z" stroke-miterlimit="10"/></g><g transform="translate(-214,-126) scale(1,1)"><path fill="none" stroke="#000000" d="M 224 577 L 383.67431640625 577" stroke-miterlimit="10"/></g><g transform="translate(-214,-126) scale(1,1)"><path fill="none" stroke="#000000" d="M 224 600 L 383.67431640625 600" stroke-miterlimit="10"/></g><g transform="translate(-214,-126) scale(1,1)"><g><path fill="none" stroke="none"/><text fill="#000000" stroke="none" font-family="Arial" font-size="13px" font-style="normal" font-weight="bold" text-decoration="none" x="263.60888671875" y="571.5">Tienda Online</text></g></g><g transform="translate(-214,-126) scale(1,1)"><g><path fill="none" stroke="none"/><text fill="#000000" stroke="none" font-family="Arial" font-size="13px" font-style="normal" font-weight="normal" text-decoration="none" x="229" y="594.5">+Informacion del producto</text></g></g><g transform="translate(-214,-126) scale(1,1)"><g><path fill="none" stroke="none"/><text fill="#000000" stroke="none" font-family="Arial" font-size="13px" font-style="normal" font-weight="normal" text-decoration="none" x="229" y="617.5">+buscar_producto()</text></g></g><g transform="translate(-214,-126) scale(1,1)"><g><path fill="none" stroke="none"/><text fill="#000000" stroke="none" font-family="Arial" font-size="13px" font-style="normal" font-weight="normal" text-decoration="none" x="229" y="632.5">+regresar_precio()</text></g></g><g transform="translate(-214,-126) scale(1,1)"><rect fill="#C0C0C0" stroke="none" x="487" y="543" width="129.29443359375" height="115" opacity="0.2"/></g><g transform="translate(-214,-126) scale(1,1)"><rect fill="#ffffff" stroke="none" x="480" y="536" width="129.29443359375" height="115"/></g><g transform="translate(-214,-126) scale(1,1)"><path fill="none" stroke="#000000" d="M 480 536 L 609.29443359375 536 L 609.29443359375 651 L 480 651 L 480 536 Z Z" stroke-miterlimit="10"/></g><g transform="translate(-214,-126) scale(1,1)"><path fill="none" stroke="#000000" d="M 480 561 L 609.29443359375 561" stroke-miterlimit="10"/></g><g transform="translate(-214,-126) scale(1,1)"><path fill="none" stroke="#000000" d="M 480 599 L 609.29443359375 599" stroke-miterlimit="10"/></g><g transform="translate(-214,-126) scale(1,1)"><g><path fill="none" stroke="none"/><text fill="#000000" stroke="none" font-family="Arial" font-size="13px" font-style="normal" font-weight="bold" text-decoration="none" x="508.51953125" y="555.5">Comparador</text></g></g><g transform="translate(-214,-126) scale(1,1)"><g><path fill="none" stroke="none"/><text fill="#000000" stroke="none" font-family="Arial" font-size="13px" font-style="normal" font-weight="normal" text-decoration="none" x="485" y="578.5">+Tienda</text></g></g><g transform="translate(-214,-126) scale(1,1)"><g><path fill="none" stroke="none"/><text fill="#000000" stroke="none" font-family="Arial" font-size="13px" font-style="normal" font-weight="normal" text-decoration="none" x="485" y="593.5">+Precio</text></g></g><g transform="translate(-214,-126) scale(1,1)"><g><path fill="none" stroke="none"/><text fill="#000000" stroke="none" font-family="Arial" font-size="13px" font-style="normal" font-weight="normal" text-decoration="none" x="485" y="616.5">+comparar_precios()</text></g></g><g transform="translate(-214,-126) scale(1,1)"><g><path fill="none" stroke="none"/><text fill="#000000" stroke="none" font-family="Arial" font-size="13px" font-style="normal" font-weight="normal" text-decoration="none" x="485" y="631.5">+regresar_precio()</text></g></g><g transform="translate(-214,-126) scale(1,1)"><g><path fill="none" stroke="none"/><text fill="#000000" stroke="none" font-family="Arial" font-size="13px" font-style="normal" font-weight="normal" text-decoration="none" x="485" y="646.5">+regresar_tienda()</text></g></g><g transform="translate(-214,-126) scale(1,1)"><rect fill="#C0C0C0" stroke="none" x="247" y="143" width="106.9189453125" height="85" opacity="0.2"/></g><g transform="translate(-214,-126) scale(1,1)"><rect fill="#ffffff" stroke="none" x="240" y="136" width="106.9189453125" height="85"/></g><g transform="translate(-214,-126) scale(1,1)"><path fill="none" stroke="#000000" d="M 240 136 L 346.9189453125 136 L 346.9189453125 221 L 240 221 L 240 136 Z Z" stroke-miterlimit="10"/></g><g transform="translate(-214,-126) scale(1,1)"><path fill="none" stroke="#000000" d="M 240 161 L 346.9189453125 161" stroke-miterlimit="10"/></g><g transform="translate(-214,-126) scale(1,1)"><path fill="none" stroke="#000000" d="M 240 184 L 346.9189453125 184" stroke-miterlimit="10"/></g><g transform="translate(-214,-126) scale(1,1)"><g><path fill="none" stroke="none"/><text fill="#000000" stroke="none" font-family="Arial" font-size="13px" font-style="normal" font-weight="bold" text-decoration="none" x="279.732666015625" y="155.5">GPS</text></g></g><g transform="translate(-214,-126) scale(1,1)"><g><path fill="none" stroke="none"/><text fill="#000000" stroke="none" font-family="Arial" font-size="13px" font-style="normal" font-weight="normal" text-decoration="none" x="245" y="178.5">+Ubicaciones</text></g></g><g transform="translate(-214,-126) scale(1,1)"><g><path fill="none" stroke="none"/><text fill="#000000" stroke="none" font-family="Arial" font-size="13px" font-style="normal" font-weight="normal" text-decoration="none" x="245" y="201.5">+buscar_tienda()</text></g></g><g transform="translate(-214,-126) scale(1,1)"><path fill="none" stroke="#000000" d="M 319 458 L 319 552" stroke-miterlimit="10"/></g><g transform="translate(-214,-126) scale(1,1)"><path fill="none" stroke="#000000" d="M 314.790482243984 541.8373251423759 L 319 552 L 323.209517756016 541.8373251423759" stroke-miterlimit="10"/></g><g transform="translate(-214,-126) scale(1,1)"><path fill="none" stroke="#000000" d="M 300 328 L 300 221" stroke-miterlimit="10"/></g><g transform="translate(-214,-126) scale(1,1)"><path fill="none" stroke="#000000" d="M 304.209517756016 231.16267485762415 L 300 221 L 295.790482243984 231.16267485762415" stroke-miterlimit="10"/></g><g transform="translate(-214,-126) scale(1,1)"><path fill="none" stroke="#000000" d="M 384 594 L 480 594" stroke-miterlimit="10"/></g><g transform="translate(-214,-126) scale(1,1)"><path fill="none" stroke="#000000" d="M 469.83732514237585 598.209517756016 L 480 594 L 469.83732514237585 589.790482243984" stroke-miterlimit="10"/></g><g transform="translate(-214,-126) scale(1,1)"><path fill="none" stroke="#000000" d="M 544 536 L 544 408 L 392 408" stroke-miterlimit="10"/></g><g transform="translate(-214,-126) scale(1,1)"><path fill="none" stroke="#000000" d="M 402.16267485762415 403.790482243984 L 392 408 L 402.16267485762415 412.209517756016" stroke-miterlimit="10"/></g></g></svg>